<svg xmlns="http://www.w3.org/2000/svg" viewBox="0 0 400 300">
  <defs>
    <linearGradient id="bg" x1="0" y1="0" x2="0" y2="1">
      <stop offset="0" stop-color="#fbf3e8"/>
      <stop offset="1" stop-color="#e8d2b0"/>
    </linearGradient>
    <linearGradient id="cup" x1="0" y1="0" x2="0" y2="1">
      <stop offset="0" stop-color="#fdfaf4"/>
      <stop offset="1" stop-color="#efe4d2"/>
    </linearGradient>
  </defs>
  <rect width="400" height="300" fill="url(#bg)"/>
  <ellipse cx="202" cy="272" rx="120" ry="12" fill="#9a6f3a" opacity="0.2"/>
  <ellipse cx="202" cy="248" rx="96" ry="14" fill="#c9b99f"/>
  <path d="M308 224 q26 -6 20 -30 q-6 -22 -34 -8 l-6 2 z" fill="#d8c9ae"/>
  <path d="M122 220 h72 v-56 q0 -18 20 -18 h36 q20 0 20 18 v56 h72 v18 h-220 z" fill="url(#cup)"/>
  <ellipse cx="196" cy="158" rx="54" ry="14" fill="#6a3c15"/>
  <ellipse cx="196" cy="154" rx="48" ry="11" fill="#f3ead9"/>
  <path d="M196 150 q10 -8 20 0 q-6 10 -20 6 q-14 4 -20 -6 q10 -8 20 0z" fill="#e9d5b8"/>
  <circle cx="180" cy="150" r="7" fill="#fdfaf4"/>
  <path d="M176 150 l6 5 10 -8" fill="none" stroke="#7a4a1a" stroke-width="2.5" stroke-linecap="round" stroke-linejoin="round"/>
  <path d="M196 118 q6 -12 14 -16 q-4 12 -8 16 z" fill="#fdfaf4" opacity="0.9"/>
  <path d="M214 120 q6 -12 14 -16 q-4 12 -8 16 z" fill="#fdfaf4" opacity="0.9"/>
  <rect x="138" y="214" width="112" height="12" rx="6" fill="#d8c9ae" opacity="0.7"/>
</svg>