<svg xmlns="http://www.w3.org/2000/svg" viewBox="0 0 400 300">
  <defs>
    <linearGradient id="bg" x1="0" y1="0" x2="0" y2="1">
      <stop offset="0" stop-color="#fdf5df"/>
      <stop offset="1" stop-color="#f2de9e"/>
    </linearGradient>
    <linearGradient id="coffee" x1="0" y1="0" x2="0" y2="1">
      <stop offset="0" stop-color="#8a5a28"/>
      <stop offset="1" stop-color="#5a3415"/>
    </linearGradient>
  </defs>
  <rect width="400" height="300" fill="url(#bg)"/>
  <ellipse cx="202" cy="274" rx="116" ry="12" fill="#8a5a28" opacity="0.18"/>
  <path d="M128 230 q-34 -8 14 -16 q18 -2 26 -4 q14 -26 52 -26 q38 0 52 26 q8 2 26 4 q48 8 14 16 z" fill="#f7ecd4"/>
  <path d="M128 230 h156 v14 q0 8 -14 8 h-128 q-14 0 -14 -8 z" fill="#e4d3ac"/>
  <path d="M308 232 q20 -6 14 -22 q-6 -16 -24 -6 l-4 4 q4 4 -2 14 z" fill="#efe1c2"/>
  <path d="M150 220 h116 v-8 q0 -14 -12 -14 h-92 q-12 0 -12 14 z" fill="#fff8ea"/>
  <path d="M150 212 h116 l-2 10 h-112 z" fill="#6a3c15" opacity="0.6"/>
  <rect x="208" y="196" width="110" height="14" rx="7" fill="#fff8ea" stroke="#7a5a2a" stroke-width="1.5"/>
  <path d="M248 146 q42 -6 58 32 q-34 -4 -58 -32z" fill="#fdf5df" opacity="0.6"/>
  <rect x="170" y="200" width="100" height="10" rx="5" fill="#6a3c15" opacity="0.85"/>
  <rect x="176" y="192" width="88" height="10" rx="5" fill="#f7ecd4"/>
  <path d="M266 130 q-4 -10 -2 -16" stroke="#fdf5df" stroke-width="3" fill="none" stroke-linecap="round" opacity="0.8"/>
  <path d="M278 136 q-5 -12 -4 -20" stroke="#fdf5df" stroke-width="3" fill="none" stroke-linecap="round" opacity="0.8"/>
</svg>